<svg width="31" height="50" viewBox="0 0 31 50" fill="none" xmlns="http://www.w3.org/2000/svg">
<path d="M26.2846 20.609C28.8327 22.9818 28.8328 27.0182 26.2846 29.391L17.8389 37.2557C14.0019 40.8288 7.75 38.1078 7.75 32.8647L7.75 17.1353C7.75 11.8922 14.0019 9.17121 17.8389 12.7443L26.2846 20.609Z" fill="white" fill-opacity="0.76"/>
<path fill-rule="evenodd" clip-rule="evenodd" d="M13.953 14.6091C13.953 13.4614 15.5248 13.1357 15.9808 14.1889L20.0536 23.5957C20.4027 24.4021 20.4027 25.317 20.0536 26.1234L15.9811 35.5305C15.5251 36.5837 13.9533 36.2581 13.9533 35.1104V35.1104C13.9533 34.9659 13.9829 34.8229 14.0403 34.6903L17.4363 26.8461C17.985 25.5786 17.985 24.1405 17.4362 22.873L14.0401 15.0292C13.9826 14.8966 13.953 14.7536 13.953 14.6091V14.6091Z" fill="black"/>
</svg>
