<svg width="31" height="50" viewBox="0 0 31 50" fill="none" xmlns="http://www.w3.org/2000/svg">
<path d="M4.71535 29.391C2.16725 27.0182 2.16725 22.9818 4.71535 20.609L13.1611 12.7443C16.9981 9.17122 23.25 11.8922 23.25 17.1353L23.25 32.8647C23.25 38.1078 16.9981 40.8288 13.1611 37.2557L4.71535 29.391Z" fill="white" fill-opacity="0.76"/>
<path fill-rule="evenodd" clip-rule="evenodd" d="M17.047 35.3909C17.047 36.5386 15.4752 36.8643 15.0192 35.8111L10.9464 26.4043C10.5973 25.5979 10.5973 24.683 10.9464 23.8766L15.0189 14.4695C15.4749 13.4163 17.0467 13.7419 17.0467 14.8896V14.8896C17.0467 15.0341 17.0171 15.1771 16.9597 15.3097L13.5637 23.1539C13.015 24.4214 13.015 25.8595 13.5638 27.127L16.9599 34.9708C17.0174 35.1034 17.047 35.2464 17.047 35.3909V35.3909Z" fill="black"/>
</svg>
