<svg width="35" height="34" viewBox="0 0 35 34" fill="none" xmlns="http://www.w3.org/2000/svg">
<circle cx="17.9835" cy="16.9967" r="15.9967" stroke="white" stroke-width="2"/>
<path d="M13.5927 25.4536L13.7322 25.5711H13.9147H19.1637H19.6637V25.0711V23.0716H20.2064L22.5594 25.4247L22.7059 25.5711H22.913H28.6619H29.6188L29.0723 24.7856L25.2567 19.3006L29.092 12.8284L29.5394 12.0735H28.6619H23.6628H23.4067L23.2571 12.2814L19.6637 17.2722V12.3236V11.8236L19.1637 11.8236L14.4146 11.8236L13.9146 11.8236V12.3236C13.9146 12.7181 13.9572 13.3063 14.0035 13.9457C14.0068 13.992 14.0102 14.0386 14.0136 14.0853C14.0644 14.7903 14.1181 15.5641 14.1334 16.2776C14.149 17.0014 14.1234 17.6194 14.0321 18.0285C14.0033 18.1574 13.9727 18.2428 13.9478 18.2962C13.9174 18.2763 13.8761 18.2458 13.8237 18.1996C13.701 18.0916 13.5552 17.9322 13.39 17.7221C13.0604 17.3028 12.691 16.7301 12.3153 16.0888C11.5657 14.8094 10.823 13.3121 10.3666 12.3578L10.2306 12.0735H9.91549H5.91626H5.25339L5.4355 12.7109C7.47366 19.8445 11.9723 24.0891 13.5927 25.4536Z" stroke="white"/>
</svg>
