<svg width="31" height="50" viewBox="0 0 31 50" fill="none" xmlns="http://www.w3.org/2000/svg">
<path d="M4.88572 20.792L13.3314 12.9272C17.0086 9.50306 23 12.1107 23 17.1353L23 32.8647C23 37.8893 17.0086 40.497 13.3314 37.0728L4.88572 29.208C2.44379 26.9341 2.44379 23.0659 4.88572 20.792Z" fill="white" fill-opacity="0.76" stroke="black" stroke-width="0.5"/>
<path fill-rule="evenodd" clip-rule="evenodd" d="M17.047 35.3909C17.047 36.5386 15.4752 36.8643 15.0192 35.8111L10.9464 26.4043C10.5973 25.5979 10.5973 24.683 10.9464 23.8766L15.0189 14.4695C15.4749 13.4163 17.0467 13.7419 17.0467 14.8896C17.0467 15.0341 17.0171 15.1771 16.9597 15.3097L13.5637 23.1539C13.015 24.4214 13.015 25.8595 13.5638 27.127L16.9599 34.9708C17.0174 35.1034 17.047 35.2464 17.047 35.3909Z" fill="black"/>
</svg>
