<svg width="226" height="65" viewBox="0 0 226 65" fill="none" xmlns="http://www.w3.org/2000/svg">
<path fill-rule="evenodd" clip-rule="evenodd" d="M80.3919 5.64C80.3919 2.52511 77.8098 0 74.6247 0H6.37928C3.19413 0 0.612061 2.52512 0.612061 5.64V43.24C0.612061 46.3549 3.19413 48.88 6.37928 48.88H32.3318V60.16H10.2241C9.69323 60.16 9.26289 60.5809 9.26289 61.1V63.92C9.26289 64.4391 9.69323 64.86 10.2241 64.86H57.368C55.4614 63.6203 53.8206 62.0205 52.5471 60.16H47.711V48.88H49.7391C49.8484 47.9131 50.041 46.9708 50.3098 46.06H6.35611C4.76354 46.06 3.47251 44.7974 3.47251 43.24V5.64C3.47251 4.08256 4.76354 2.82 6.35612 2.82H74.6594C76.252 2.82 77.543 4.08256 77.543 5.64V37.3922C78.5966 38.1929 79.5529 39.1101 80.3919 40.124V5.64ZM42.905 55.46C42.905 57.0174 41.614 58.28 40.0214 58.28C38.4288 58.28 37.1378 57.0174 37.1378 55.46C37.1378 53.9026 38.4288 52.64 40.0214 52.64C41.614 52.64 42.905 53.9026 42.905 55.46Z" fill="white"/>
<path d="M80.9204 48.3733L58.0884 38.7027L66.2758 61.6802L66.5503 61.4308L70.1867 51.573L80.8014 48.4814L80.9204 48.3733Z" fill="white"/>
<path d="M69.6243 24.7606C70.0028 24.0644 70.8796 23.7963 71.5827 24.1619C72.2858 24.5274 72.5489 25.3881 72.1704 26.0844L66.3218 36.8431C65.9434 37.5393 65.0666 37.8074 64.3635 37.4419C63.6603 37.0763 63.3972 36.2156 63.7757 35.5194L69.6243 24.7606Z" fill="white"/>
<path d="M60.5878 22.1144C60.6663 21.3222 61.3725 20.7409 62.1651 20.816C62.9576 20.8912 63.5365 21.5943 63.4579 22.3866L62.2582 34.4874C62.1796 35.2796 61.4734 35.861 60.6809 35.7858C59.8883 35.7107 59.3095 35.0075 59.388 34.2153L60.5878 22.1144Z" fill="white"/>
<path d="M50.2028 24.0357C49.8884 23.3069 50.2283 22.4708 50.9619 22.1681C51.6956 21.8653 52.5452 22.2107 52.8596 22.9394L57.6997 34.1575C58.0141 34.8862 57.6743 35.7223 56.9406 36.0251C56.207 36.3278 55.3573 35.9825 55.0429 35.2537L50.2028 24.0357Z" fill="white"/>
<path d="M55.1806 37.5826C55.8399 38.0071 56.0193 38.8785 55.5813 39.5288C55.1434 40.1792 54.254 40.3623 53.5948 39.9378L43.1374 33.2038C42.4782 32.7793 42.2988 31.9079 42.7367 31.2575C43.1746 30.6071 44.064 30.424 44.7232 30.8485L55.1806 37.5826Z" fill="white"/>
<path d="M54.2008 41.715C54.9763 41.7872 55.5438 42.4742 55.4683 43.2494C55.3928 44.0246 54.7029 44.5945 53.9274 44.5223L41.4258 43.358C40.6503 43.2858 40.0828 42.5988 40.1583 41.8236C40.2338 41.0484 40.9237 40.4785 41.6992 40.5507L54.2008 41.715Z" fill="white"/>
<path fill-rule="evenodd" clip-rule="evenodd" d="M170.435 29.1714C160.921 27.7444 145.404 42.3003 144.819 53.574C144.403 61.5655 159.457 60.5665 166.922 48.5793C167.069 48.4366 169.704 49.1501 176.583 46.1533C175.168 48.9599 171.976 54.7311 171.167 55.8573C170.143 57.2843 172.778 59.5676 175.705 56.7135C183.122 49.055 196.345 35.1651 188.001 53.0032C183.729 62.1363 197.37 60.9947 219.913 39.0181C228.988 31.4547 227.964 29.3142 202.347 46.8669C196.931 50.9102 188.821 55.315 199.712 40.5878C210.603 25.8607 199.273 33.0245 192.246 38.4473C188.001 41.8722 181.912 45.9535 191.514 34.8796C203.518 21.0373 207.324 19.0394 212.154 14.4728C219.327 7.69217 223.279 -5.36315 199.712 17.6123C197.185 20.0758 187.802 32.0255 184.635 35.5932C181.804 38.7802 175.003 44.869 170.435 43.7274C178.516 31.1693 173.802 29.6764 170.435 29.1714ZM158.871 40.4451C147.893 50.2918 147.746 62.5644 162.677 46.1533C160.452 43.6417 159.213 41.3014 158.871 40.4451ZM163.702 38.7327C168.679 31.5974 175.12 31.4547 166.044 41.8722C163.819 41.5297 163.555 39.6365 163.702 38.7327Z" fill="white"/>
<path fill-rule="evenodd" clip-rule="evenodd" d="M152.577 5.33972C137.646 2.20019 109.979 22.607 104.271 49.8637C102.514 54.8583 109.101 69.5569 130.18 54.8583C141.257 45.7728 164.287 23.3776 167.801 6.48136C169.373 -1.082 154.919 2.62831 152.577 5.33972ZM160.335 13.3312C151.084 25.8892 130.912 43.3944 121.983 50.5772C116.079 55.3816 106.174 61.1088 113.785 45.5825C121.397 30.0562 129.723 22.607 132.522 20.0383C137.646 15.3374 143.208 11.3333 135.157 22.607C133.547 24.8617 131.937 27.6017 131.205 30.5985C133.693 28.0298 141.257 20.181 145.111 16.8988C150.82 12.0378 169.586 0.773161 160.335 13.3312Z" fill="white"/>
<path fill-rule="evenodd" clip-rule="evenodd" d="M170.435 29.1714C160.921 27.7444 145.404 42.3003 144.819 53.574C144.403 61.5655 159.457 60.5665 166.922 48.5793C167.069 48.4366 169.704 49.1501 176.583 46.1533C175.168 48.9599 171.976 54.7311 171.167 55.8573C170.143 57.2843 172.778 59.5676 175.705 56.7135C183.122 49.055 196.345 35.1651 188.001 53.0032C183.729 62.1363 197.37 60.9947 219.913 39.0181C228.988 31.4547 227.964 29.3142 202.347 46.8669C196.931 50.9102 188.821 55.315 199.712 40.5878C210.603 25.8607 199.273 33.0245 192.246 38.4473C188.001 41.8722 181.912 45.9535 191.514 34.8796C203.518 21.0373 207.324 19.0394 212.154 14.4728C219.327 7.69217 223.279 -5.36315 199.712 17.6123C197.185 20.0758 187.802 32.0255 184.635 35.5932C181.804 38.7802 175.003 44.869 170.435 43.7274C178.516 31.1693 173.802 29.6764 170.435 29.1714ZM158.871 40.4451C147.893 50.2918 147.746 62.5644 162.677 46.1533C160.452 43.6417 159.213 41.3014 158.871 40.4451ZM163.702 38.7327C168.679 31.5974 175.12 31.4547 166.044 41.8722C163.819 41.5297 163.555 39.6365 163.702 38.7327Z" stroke="black"/>
<path fill-rule="evenodd" clip-rule="evenodd" d="M152.577 5.33972C137.646 2.20019 109.979 22.607 104.271 49.8637C102.514 54.8583 109.101 69.5569 130.18 54.8583C141.257 45.7728 164.287 23.3776 167.801 6.48136C169.373 -1.082 154.919 2.62831 152.577 5.33972ZM160.335 13.3312C151.084 25.8892 130.912 43.3944 121.983 50.5772C116.079 55.3816 106.174 61.1088 113.785 45.5825C121.397 30.0562 129.723 22.607 132.522 20.0383C137.646 15.3374 143.208 11.3333 135.157 22.607C133.547 24.8617 131.937 27.6017 131.205 30.5985C133.693 28.0298 141.257 20.181 145.111 16.8988C150.82 12.0378 169.586 0.773161 160.335 13.3312Z" stroke="black"/>
</svg>
