<svg width="112" height="33" viewBox="0 0 112 33" fill="none" xmlns="http://www.w3.org/2000/svg">
<path fill-rule="evenodd" clip-rule="evenodd" d="M39.6177 2.80075C39.6177 1.25394 38.3354 0 36.7537 0H2.86393C1.28222 0 0 1.25394 0 2.80075V21.4724C0 23.0192 1.28222 24.2732 2.86393 24.2732H15.7516V29.8747H4.77321C4.50959 29.8747 4.29589 30.0837 4.29589 30.3415V31.7419C4.29589 31.9997 4.50959 32.2087 4.77321 32.2087H28.1843C27.2375 31.593 26.4227 30.7986 25.7903 29.8747H23.3887V24.2732H24.3959C24.4502 23.793 24.5458 23.3251 24.6793 22.8728H2.85242C2.06157 22.8728 1.42046 22.2458 1.42046 21.4724V2.80075C1.42046 2.02735 2.06157 1.40038 2.85242 1.40038H36.771C37.5618 1.40038 38.2029 2.02735 38.2029 2.80075V18.5685C38.7261 18.9661 39.201 19.4216 39.6177 19.9251V2.80075ZM21.0021 27.5407C21.0021 28.3141 20.361 28.9411 19.5702 28.9411C18.7793 28.9411 18.1382 28.3141 18.1382 27.5407C18.1382 26.7673 18.7793 26.1404 19.5702 26.1404C20.361 26.1404 21.0021 26.7673 21.0021 27.5407Z" fill="white"/>
<path d="M39.8801 24.0216L28.542 19.2192L32.6078 30.6296L32.7441 30.5058L34.5499 25.6105L39.821 24.0752L39.8801 24.0216Z" fill="white"/>
<path d="M34.2706 12.2958C34.4585 11.9501 34.8939 11.817 35.2431 11.9985C35.5923 12.18 35.7229 12.6074 35.535 12.9532L32.6306 18.2958C32.4427 18.6416 32.0073 18.7747 31.6581 18.5932C31.309 18.4116 31.1783 17.9842 31.3662 17.6385L34.2706 12.2958Z" fill="white"/>
<path d="M29.7832 10.9817C29.8222 10.5883 30.1729 10.2997 30.5664 10.337C30.96 10.3743 31.2475 10.7235 31.2085 11.1169L30.6127 17.126C30.5737 17.5194 30.223 17.8081 29.8294 17.7708C29.4358 17.7335 29.1484 17.3843 29.1874 16.9909L29.7832 10.9817Z" fill="white"/>
<path d="M24.6261 11.9358C24.47 11.5739 24.6388 11.1587 25.0031 11.0084C25.3674 10.858 25.7893 11.0295 25.9455 11.3914L28.349 16.9622C28.5051 17.324 28.3364 17.7393 27.972 17.8896C27.6077 18.0399 27.1858 17.8684 27.0297 17.5066L24.6261 11.9358Z" fill="white"/>
<path d="M27.0981 18.663C27.4254 18.8738 27.5145 19.3066 27.297 19.6295C27.0796 19.9525 26.6379 20.0434 26.3106 19.8326L21.1175 16.4886C20.7902 16.2778 20.7011 15.8451 20.9186 15.5221C21.136 15.1991 21.5777 15.1082 21.905 15.319L27.0981 18.663Z" fill="white"/>
<path d="M26.6115 20.7151C26.9966 20.751 27.2784 21.0921 27.2409 21.4771C27.2034 21.8621 26.8608 22.1451 26.4757 22.1092L20.2676 21.531C19.8825 21.4952 19.6007 21.154 19.6382 20.7691C19.6757 20.3841 20.0182 20.1011 20.4034 20.137L26.6115 20.7151Z" fill="white"/>
<path fill-rule="evenodd" clip-rule="evenodd" d="M84.3323 14.4862C79.6073 13.7775 71.902 21.0058 71.6113 26.6042C71.4052 30.5726 78.8804 30.0766 82.5877 24.1239C82.6604 24.053 83.9688 24.4073 87.3853 22.9192C86.6827 24.3128 85.0973 27.1787 84.6958 27.738C84.1869 28.4467 85.4954 29.5805 86.9492 28.1632C90.6322 24.3601 97.1987 17.4625 93.0553 26.3207C90.9339 30.8561 97.7076 30.2892 108.902 19.3759C113.409 15.62 112.9 14.557 100.179 23.2735C97.4895 25.2813 93.4624 27.4687 98.8706 20.1554C104.279 12.8421 98.6525 16.3995 95.1633 19.0924C93.0553 20.7932 90.0313 22.8199 94.7999 17.3208C100.761 10.4468 102.651 9.45471 105.049 7.18701C108.611 3.81982 110.574 -2.66328 98.8706 8.74606C97.6158 9.96938 92.9566 15.9035 91.3834 17.6751C89.978 19.2578 86.6003 22.2814 84.3323 21.7144C88.3449 15.4783 86.0042 14.7369 84.3323 14.4862ZM78.5897 20.0845C73.1378 24.9742 73.0651 31.0687 80.4796 22.9192C79.3747 21.6719 78.7593 20.5097 78.5897 20.0845ZM80.9885 19.2341C83.46 15.6909 86.6584 15.62 82.1515 20.7932C81.0466 20.6231 80.9158 19.683 80.9885 19.2341Z" fill="white"/>
<path fill-rule="evenodd" clip-rule="evenodd" d="M75.4639 2.65163C68.0494 1.09258 54.3106 11.2263 51.4757 24.7617C50.6034 27.2419 53.8745 34.5411 64.3421 27.2419C69.8424 22.7302 81.2792 11.609 83.0238 3.21855C83.8048 -0.537318 76.627 1.30517 75.4639 2.65163ZM79.3166 6.62009C74.7225 12.8563 64.7056 21.5491 60.2714 25.116C57.3395 27.5018 52.4207 30.3459 56.2006 22.6357C59.9806 14.9255 64.1149 11.2263 65.5052 9.95077C68.0494 7.61637 70.8117 5.62797 66.8136 11.2263C66.014 12.346 65.2144 13.7066 64.8509 15.1948C66.0867 13.9192 69.8424 10.0216 71.7566 8.39173C74.5916 5.97782 83.9107 0.383932 79.3166 6.62009Z" fill="white"/>
<path fill-rule="evenodd" clip-rule="evenodd" d="M84.3323 14.4862C79.6073 13.7775 71.902 21.0058 71.6113 26.6042C71.4052 30.5726 78.8804 30.0766 82.5877 24.1239C82.6604 24.053 83.9688 24.4073 87.3853 22.9192C86.6827 24.3128 85.0973 27.1787 84.6958 27.738C84.1869 28.4467 85.4954 29.5805 86.9492 28.1632C90.6322 24.3601 97.1987 17.4625 93.0553 26.3207C90.9339 30.8561 97.7076 30.2892 108.902 19.3759C113.409 15.62 112.9 14.557 100.179 23.2735C97.4895 25.2813 93.4624 27.4687 98.8706 20.1554C104.279 12.8421 98.6525 16.3995 95.1633 19.0924C93.0553 20.7932 90.0313 22.8199 94.7999 17.3208C100.761 10.4468 102.651 9.45471 105.049 7.18701C108.611 3.81982 110.574 -2.66328 98.8706 8.74606C97.6158 9.96938 92.9566 15.9035 91.3834 17.6751C89.978 19.2578 86.6003 22.2814 84.3323 21.7144C88.3449 15.4783 86.0042 14.7369 84.3323 14.4862ZM78.5897 20.0845C73.1378 24.9742 73.0651 31.0687 80.4796 22.9192C79.3747 21.6719 78.7593 20.5097 78.5897 20.0845ZM80.9885 19.2341C83.46 15.6909 86.6584 15.62 82.1515 20.7932C81.0466 20.6231 80.9158 19.683 80.9885 19.2341Z" stroke="black"/>
<path fill-rule="evenodd" clip-rule="evenodd" d="M75.4639 2.65163C68.0494 1.09258 54.3106 11.2263 51.4757 24.7617C50.6034 27.2419 53.8745 34.5411 64.3421 27.2419C69.8424 22.7302 81.2792 11.609 83.0238 3.21855C83.8048 -0.537318 76.627 1.30517 75.4639 2.65163ZM79.3166 6.62009C74.7225 12.8563 64.7056 21.5491 60.2714 25.116C57.3395 27.5018 52.4207 30.3459 56.2006 22.6357C59.9806 14.9255 64.1149 11.2263 65.5052 9.95077C68.0494 7.61637 70.8117 5.62797 66.8136 11.2263C66.014 12.346 65.2144 13.7066 64.8509 15.1948C66.0867 13.9192 69.8424 10.0216 71.7566 8.39173C74.5916 5.97782 83.9107 0.383932 79.3166 6.62009Z" stroke="black"/>
</svg>
